Simulation
nRows=28
nColumns=15
endheader
time  TH_x TH_y TH_z SC_y  SC_z  SC_x  AC_y  AC_z  AC_x  GH_y  GH_z  GH_yy  EL_x  PS_y
0.0  0.000000  0.000000  0.000000  -21.481837363305974  5.049547332879065  0.3347068766571287  51.81029299145953  5.805768778168728  0.2519056454324453  171.43093148521382  1.6761337689100837  -128.42170243359763  21.04387187203624  120.000000
0.05362  0.000000  0.000000  0.000000  -20.075761788811963  4.750667487562821  -1.2622456760421399  50.81804016075716  5.980397236997681  0.3148687061251969  4.59794017203929  1.917579643815797  36.998349338487756  20.34068860494134  120.000000
0.10724  0.000000  0.000000  0.000000  -18.80448902813997  4.450931197767567  -2.8169215119872573  49.80915453827097  6.043111499227055  0.3796623230477837  0.6424225811032316  5.399399483079012  39.41213592572169  19.631043546024053  120.000000
0.16086  0.000000  0.000000  0.000000  -17.741027585082296  4.189305074321059  -4.320567113394858  48.80609796712558  6.036414756669551  0.4649373460725676  -0.0774805251087205  8.7884217423277  38.31310134907433  18.888150974936348  120.000000
0.21448  0.000000  0.000000  0.000000  -16.928408012936586  3.969407025530727  -5.765546643502599  47.858300116183294  6.021675324151563  0.5985890859328906  -0.41058933518370233  12.078562030018967  36.432080452699736  18.10796842328249  120.000000
0.2681  0.000000  0.000000  0.000000  -16.384501135879404  3.7870267933177093  -7.138765101102015  47.01940977815643  6.0733603201727995  0.8007723016976346  -0.8562720206213155  15.299678618770518  34.20922580206075  17.295764232561087  120.000000
0.32172  0.000000  0.000000  0.000000  -16.103973549561164  3.6449883191736556  -8.42528376690128  46.32553362710172  6.257961419754429  1.089916486837872  -1.623438605379883  18.500675382442942  31.860991296994836  16.463960638099483  120.000000
0.37534  0.000000  0.000000  0.000000  -16.070882428430707  3.5516297612359495  -9.60940472506927  45.79097127410554  6.617775440929888  1.4765525759177747  -2.775726497869124  21.730906544905  29.520189677133793  15.628441518206646  120.000000
0.42896  0.000000  0.000000  0.000000  -16.27317956546843  3.5269038579964684  -10.674833947225899  45.4062918776889  7.164583241124586  1.9591990664204013  -4.278299827324476  25.019772238708978  27.272500657188356  14.809695601004055  120.000000
0.48258  0.000000  0.000000  0.000000  -16.711746607194335  3.5948844785445027  -11.605003110754973  45.14121806737131  7.884683576648154  2.522657167218583  -6.047423625980885  28.36471256314169  25.191596757715054  14.025891842568415  120.000000
0.5362  0.000000  0.000000  0.000000  -17.39763796993162  3.7806582576905123  -12.3795013711352  44.9607839268528  8.74984793709517  3.1422527747457343  -7.958193306524891  31.733371777852682  23.327305139736573  13.29097118695391  120.000000
0.58982  0.000000  0.000000  0.000000  -18.342438227170394  4.098686181912007  -12.965261381542376  44.84075413224028  9.726257430001201  3.7938411508034213  -9.866829475094331  35.07715931550501  21.704779983938902  12.61271512087217  120.000000
0.64344  0.000000  0.000000  0.000000  -19.55025238270996  4.5518845374412855  -13.316345231624013  44.77927268340771  10.772146711958467  4.454034952208646  -11.630940903288721  38.34435898986888  20.319824273399234  11.995443097369659  120.000000
0.69706  0.000000  0.000000  0.000000  -21.014031557650856  5.1272262608737105  -13.382278778049663  44.79596908288451  11.840127188109635  5.098927599159187  -13.137549865110653  41.4882926625671  19.144578834271186  11.436496975425104  120.000000
0.75068  0.000000  0.000000  0.000000  -22.711940099931635  5.798276807035821  -13.127031009404014  44.921840719742285  12.886420928917605  5.710908234015621  -14.311255117521506  44.473797766740546  18.123736616008106  10.923870882078642  120.000000
0.8043  0.000000  0.000000  0.000000  -24.60381820207858  6.526828296385351  -12.530967152329762  45.18921879699998  13.873144284637867  6.2732106712589975  -15.117801022042721  47.28148413979819  17.18047914481166  10.43529709473343  120.000000
0.85792  0.000000  0.000000  0.000000  -26.627696013921792  7.268750213383624  -11.592357361651432  45.618814503783604  14.766894665292677  6.765525329638103  -15.562002082906494  49.90524610503508  16.231725429287355  9.944562978807447  120.000000
0.91154  0.000000  0.000000  0.000000  -28.700835813437585  7.981744371937402  -10.33212431502105  46.2072127123199  15.54031690178217  7.167908413250208  -15.68190471888515  52.34485074707075  15.208027539165073  9.431613228525398  120.000000
0.96516  0.000000  0.000000  0.000000  -30.73172188235254  8.636056674183843  -8.799989407876543  46.9180683304129  16.173809961598344  7.467507837495469  -15.538797465751781  54.59938656065555  14.072937671672872  8.894731306885916  120.000000
1.01878  0.000000  0.000000  0.000000  -32.633141691796006  9.218942660000506  -7.0758596056165555  47.68306240217822  16.659244501354408  7.66433266116468  -15.21284356085788  56.66826858666313  12.83824625149566  8.352410910887063  120.000000
1.0724  0.000000  0.000000  0.000000  -34.33634576348343  9.733434856115515  -5.2617499399509615  48.41727774337258  16.99950827783206  7.770557861141696  -14.792911664639494  58.55056942852073  11.557006651646098  7.836368534795026  120.000000
1.12602  0.000000  0.000000  0.000000  -35.79900379467054  10.189776728905397  -3.467341270758454  49.0450625263578  17.20644988912899  7.807922312313439  -14.359660875590231  60.2445010370068  10.304434531560187  7.381985637415262  120.000000
1.17964  0.000000  0.000000  0.000000  -37.00637087420771  10.601584653901266  -1.7843927713784942  49.5237742257784  17.291068367728236  7.796128003407544  -13.96959095022547  61.74742048697654  9.156692018757965  7.0202098811613025  120.000000
1.23326  0.000000  0.000000  0.000000  -37.97118051612839  10.979180465480859  -0.2752352891996997  49.850055680754004  17.25906385429341  7.746256703435027  -13.65225920094177  63.05846038057772  8.179384018815632  6.773669457538687  120.000000
1.28688  0.000000  0.000000  0.000000  -38.725872920040075  11.326631061072957  1.025297791871167  50.0499333447751  17.1155902117758  7.6625439901281105  -13.418286681673358  64.17570354036948  7.421284031678402  6.65435876129216  120.000000
1.3405  0.000000  0.000000  0.000000  -39.31034792654515  11.64071635612416  2.106918376041688  50.16344673803253  16.870759940550617  7.544574334750343  -13.268342619228626  65.09831131217935  6.910256793754894  6.661624151031236  120.000000
1.39412  0.000000  0.000000  0.000000  -39.75906658067271  11.912844873173357  2.9800840228037213  50.22870383416264  16.548111859644237  7.393293170711439  -13.20122293703143  65.82664468778913  6.647674227737968  6.7750812935198566  120.000000
1.44774  0.000000  0.000000  0.000000  -40.095753842727774  12.131972860443726  3.6713293670980987  50.272988841486125  16.185375175592096  7.213402184860265  -13.214839836652008  66.36850977319286  6.605968969280113  6.951363008627962  120.000000
